<svg xmlns="http://www.w3.org/2000/svg" viewBox="0 0 512 512">
  <defs>
    <linearGradient id="bg" x1="0" y1="0" x2="1" y2="1">
      <stop offset="0%" stop-color="#0f172a"/>
      <stop offset="100%" stop-color="#0b0f1a"/>
    </linearGradient>
    <linearGradient id="ribbon" x1="0" y1="0" x2="1" y2="0">
      <stop offset="0%" stop-color="#06d6a0"/>
      <stop offset="35%" stop-color="#06d6a0"/>
      <stop offset="50%" stop-color="#8b5cf6"/>
      <stop offset="65%" stop-color="#8b5cf6"/>
      <stop offset="100%" stop-color="#06d6a0"/>
    </linearGradient>
    <filter id="glow" x="-25%" y="-25%" width="150%" height="150%">
      <feGaussianBlur in="SourceGraphic" stdDeviation="8" result="blur"/>
      <feMerge>
        <feMergeNode in="blur"/>
        <feMergeNode in="SourceGraphic"/>
      </feMerge>
    </filter>
  </defs>

  <rect width="512" height="512" rx="108" fill="url(#bg)"/>

  <g filter="url(#glow)">
    <path d="M256 310
      C256 370 218 400 170 400
      C108 400 68 340 68 256
      C68 172 108 112 170 112
      C218 112 256 142 256 202
      C256 142 294 112 342 112
      C404 112 444 172 444 256
      C444 340 404 400 342 400
      C294 400 256 370 256 310Z"
      fill="none" stroke="url(#ribbon)" stroke-width="44" stroke-linecap="round" stroke-linejoin="round"/>
  </g>
</svg>
